Patient5_TMGait_0pt45_1_left_05_EMG.mot
version=1
nRows=39
nColumns=33
inDegrees=no
endheader
time	1LAddLong	2LGlutMax	3LGlutMed	4LIliopsoas	5LSemiMemb	6LBicFemLong	7LRecFem	8LTensFascLat	9LVastMed	10LVasLat	11LGasMed	12lGasLat	13LTibAnt	14LPeroneusLong	15LSol	16LTibPost	17RAddLong	18RGlutMax	19RGlutMed	20RIliopsoas	21RSemiMemb	22RBicFemLong	23RRecFem	24RTensFascLat	25RVastMed	26RVasLat	27RGasMed	28RGasLat	29RTibAnt	30RPeroneusLong	31RSol	32RTibPost
7.405	0.03891	-0.007477	-0.19379	-0.018768	0.041046	0.072327	0.002289	0.041351	-0.11536	0.037537	0.016937	-0.033417	-0.009918	-0.042419	-0.007935	0.078888	0.027313	-0.003204	0.040894	0.15381	0.050201	-0.005493	-0.005341	-0.014954	-0.083466	-0.1889	-0.011902	-0.043182	-0.006714	-0.059509	0.02182	0.01236
7.406	0.03006	-0.006409	-0.13336	-0.015564	-0.093842	0.057678	-0.010223	0.13001	-0.090179	0.046692	0.09964	0.001984	-0.015717	-0.035095	0.00351	-0.014343	0.036469	-0.000153	-0.000458	0.001678	0.06485	-0.007935	-0.012665	-0.00824	-0.11444	-0.1976	-0.018005	-0.018768	-0.011139	-0.060577	-0.010529	0.003357
7.407	0.037689	-0.016174	-0.057373	-0.010529	-0.13947	0.0354	-0.016632	0.25131	-0.064087	0.041656	0.063324	0.005035	-0.028839	-0.040741	0.00061	0.005341	0.035706	-0.00351	0.044861	0.21057	0.10162	-0.00946	-0.010529	-0.04715	-0.086212	-0.088348	-0.024414	0.013275	-0.015106	-0.057373	-0.025787	0.001831
7.408	0.023499	-0.002899	-0.057068	0.004272	-0.19501	0.042114	-0.024109	0.2533	-0.042725	0.043488	0.025787	-0.016937	-0.034027	-0.018616	-0.024567	-0.075989	0.016785	-0.005341	0.09552	0.19287	0.10086	-0.009918	-0.020752	-0.098419	0.021973	-0.090027	-0.020905	0.02533	-0.020599	-0.04425	-0.004272	0.011292
7.409	0.025024	0.00351	-0.02182	-0.005798	-0.27115	0.023804	-0.025177	0.13184	-0.031281	0.020905	0.005493	0.018311	-0.028076	-0.012054	-0.042419	0.00824	0.011292	-0.003815	0.066376	-0.10376	0.10498	-0.012207	-0.022278	-0.14358	0.064087	-0.093384	0.002594	0.043182	-0.013428	-0.053101	0.023956	0.033264
7.41	0.019531	0.006104	-0.068359	0.016632	-0.1091	0.01297	-0.019989	0.063324	-0.020142	-0.01236	0.008392	0.022278	-0.022888	-0.026245	-0.062714	-0.012512	0.010834	-0.010376	0.071106	-0.000916	0.077209	-0.010529	-0.006866	-0.1712	0.06134	-0.085907	0.005798	0.024719	-0.014343	-0.041809	0.027008	0.007172
7.411	0.012665	-0.000916	-0.11536	0.025635	-0.068054	0.009003	-0.018005	0.011444	0.007477	-0.04425	0.003052	0.023804	-0.013275	0.026245	-0.044861	-0.042114	0.001068	-0.005798	0.081329	-0.055084	0.07019	-0.009003	-0.011597	-0.19501	0.031128	-0.057373	0.001373	0.006256	-0.010986	-0.036774	0.013733	-0.014954
7.412	0.012512	0.010834	-0.15488	0.031281	-0.12237	-0.02182	-0.019073	-0.027161	0.012512	-0.072174	0.019379	0.027313	-0.004578	0.057068	-0.02182	-0.046082	0.005341	-0.007782	0.068054	0.044403	0.081329	-0.008087	-0.016785	-0.22339	0.019989	-0.063477	0.001526	0.018921	-0.012054	-0.04715	-0.012512	0.046692
7.413	0.001221	0.013428	-0.069122	0.015869	-0.048828	-0.045013	-0.016174	0.084991	0.00885	-0.059509	0.009155	0.048676	-0.013885	0.029602	0.054016	0.03479	-0.000458	-0.001526	0.027924	-0.11002	0.065308	-0.007935	-0.013123	-0.15152	0.003967	-0.045471	0.002441	-0.012665	-0.008392	-0.045166	-0.013123	0.043488
7.414	0.007782	0.00351	0.11963	0.01358	0.016479	-0.045929	-0.010223	0.21332	0.003815	-0.03891	0.010834	0.00412	-0.003052	0.011902	0.060425	-0.13351	0.000305	-0.001984	-0.040741	-0.06424	0.067596	-0.008545	-0.014954	-0.010071	-0.001678	-0.038452	0.009003	-0.024872	-0.004272	-0.052185	-0.004578	-0.001984
7.415	0.012054	0.003967	0.22705	-0.005798	0.024261	-0.026245	-0.006561	0.21805	-0.00412	0.005798	-0.000153	-0.001068	-0.000916	0.024719	0.028839	0.17502	-0.00946	-0.002136	-0.084839	0.022125	0.056763	-0.001221	-0.008698	0.078125	-0.018768	-0.0177	0.01297	-0.014496	-0.003967	-0.050964	-0.003967	-0.013123
7.416	0.009766	0.007477	0.159	-0.028687	0.090637	-0.034332	-0.007019	0.006104	-0.001221	0.045166	-0.010986	0.021515	0.000916	0.027313	0.012817	0.11337	0.010223	-0.007019	-0.096436	-0.020142	0.066986	-0.004272	-0.002594	0.075684	-0.031128	0.037384	0.017548	-0.015564	-0.028992	-0.053558	0.015106	-0.016479
7.417	0.003662	-0.002441	0.079803	-0.034027	0.067749	-0.026398	-0.005493	-0.056763	0.001221	0.059814	-0.021515	0.014038	0.008087	0.038452	0.020294	0.036469	0.018463	-0.000763	-0.096893	0.038452	0.045929	-0.00885	-0.004883	0.068512	-0.054932	0.056458	0.013275	-0.012054	-0.041962	-0.050812	-0.001373	-0.017853
7.418	0.00412	-0.01236	0.001984	-0.044403	0.05722	-0.048065	-0.007629	-0.06073	0.003815	0.04837	-0.021667	0.026245	-0.00351	0.059357	0.006104	-0.016937	0.022888	0.001526	-0.090027	-0.007324	0.063782	-0.003967	-0.019226	0.029602	-0.11353	0.053711	0.001068	-0.012054	-0.036774	-0.057373	0.004425	-0.017548
7.419	-0.014648	-0.021515	-0.08667	-0.040283	-0.046539	-0.10712	-0.019684	-0.15595	0.014648	0.063019	-0.054016	0.041962	-0.0177	0.046387	0.007782	0.093842	0.028229	-0.007019	-0.039215	-0.012207	0.051727	-0.011597	-0.024567	0.015411	-0.14099	0.023651	0.00885	-0.010071	-0.033875	-0.059204	0.022583	-0.00885
7.42	-0.022888	-0.020294	-0.13718	-0.020752	-0.15579	-0.11704	0.00351	-0.2182	0.031281	0.047913	-0.14114	0.039215	-0.029602	-0.04837	-0.003967	-0.084381	0.016785	-0.003967	-0.004578	0.03952	0.037079	-0.01297	-0.016632	-0.016022	-0.083313	0.002899	0.005798	-0.001678	-0.028839	-0.054321	0.040436	0.005951
7.421	-0.023193	-0.02533	-0.20508	-0.046997	-0.1294	-0.11612	0.010223	-0.25894	0.037689	0.032959	-0.15854	0.028229	0.021515	-0.10361	0.001373	0.036011	0.016022	-0.013275	-0.001984	-0.072937	0.035706	-0.010529	-0.015564	-0.025787	-0.087433	-0.004425	0.00885	-0.000916	-0.005493	-0.040741	0.048218	-0.001526
7.422	-0.026398	-0.02243	-0.19318	0.016022	-0.083466	-0.046387	0.010834	-0.26352	0.045166	0.023499	-0.1149	-0.05188	0.014191	-0.095215	-0.001678	-0.14267	0.013733	-0.002899	-0.016632	-0.066376	0.066223	-0.009155	-0.016022	-0.011444	-0.084229	0.002289	0.009613	-0.005035	0.043793	-0.025482	0.019836	-0.007629
7.423	-0.0177	-0.015869	-0.15655	0.088806	-0.05722	-0.003815	0.007172	-0.14893	0.058594	0.02533	0.053253	-0.01709	-0.012817	0.048523	0.006256	0.041046	0.014801	0.000153	0.026398	-0.095673	0.070496	-0.002441	-0.015411	0.016327	-0.048676	0.010376	0.011444	-0.016937	0.014954	-0.012054	0.007782	0.00412
7.424	-0.005341	-0.018311	-0.011444	0.076141	-0.045776	-0.010376	0.000153	0.057373	0.073853	0.038452	0.059814	-0.002441	-0.037384	0.054321	0.021362	0.13687	0.01358	-0.00885	0.07019	-0.032196	0.066986	-0.003052	-0.020294	-0.010529	0.009308	0.01297	0.015411	-0.015564	-0.013733	-0.020447	0.007324	0.027466
7.425	-0.007324	-0.004578	0.20035	-0.003662	-0.074158	-0.00351	0.00061	0.25894	0.077057	0.040588	0.023193	-0.018768	-0.048218	0.000305	0.00885	0.12756	0.014801	-0.006256	0.044708	-0.22522	0.087433	-0.000763	-0.019073	-0.034027	0.053101	0.006866	-0.001831	-0.008392	-0.003357	-0.031281	-0.007935	0.089417
7.426	-0.009155	0.005341	0.36346	0.019836	-0.039673	-0.013123	0.001678	0.30975	0.087433	0.036011	0.026398	-0.01297	-0.032349	-0.007172	0.000763	0.054474	0.015259	-0.003357	0.000153	-0.003662	0.072327	0	-0.020447	-0.048676	0.060425	0.000916	0.00885	-0.007935	0.003662	-0.035553	0	0.067749
7.427	0.003357	0.011139	0.2594	-0.000305	0.007172	-0.021057	0.003815	0.13153	0.10147	0.021973	-0.032043	-0.018158	-0.014954	-0.001831	-0.003662	-0.045319	0.018311	-0.005493	-0.02594	-0.13397	0.063934	-0.003662	-0.02182	-0.14694	0.053406	-0.011139	0.006256	-0.00885	0.009003	-0.036469	0.005188	-0.026855
7.428	0.000458	0.014343	0.07431	-0.012054	-0.011139	-0.035248	0.006714	-0.009918	0.078583	-0.002289	-0.11459	-0.002594	-0.027313	0.027161	-0.001526	0.008087	0.014191	-0.00824	-0.1442	0.20981	0.053558	-0.011902	-0.018005	-0.22232	0.033569	-0.018463	0.002594	-0.016479	0.00351	-0.037842	0.004425	-0.000305
7.429	-0.005951	0.009308	-0.079498	0.01358	-0.041809	-0.046539	0.005951	-0.21088	0.04776	0.016479	-0.02655	-0.009766	-0.012817	0.033417	-0.034332	-0.10834	0.011139	-0.007172	-0.21362	0.039063	0.072174	-0.016174	-0.016785	-0.28763	0.027924	-0.006256	-0.002594	-0.013275	0.003204	-0.040894	0.002899	-0.001221
7.43	-0.011597	0.010681	-0.16205	0.031433	-0.036774	-0.037231	-0.008392	-0.4071	0.000153	0.04425	0.11154	-0.015411	-0.026398	0.06073	-0.030823	0.026703	0.005188	-0.007477	-0.11887	0.055084	0.10986	-0.15228	-0.014954	-0.34317	0.028839	-0.001373	0.001678	-0.004272	-0.005646	-0.042877	-0.001068	-0.009155
7.431	-0.019379	0.015411	-0.12619	0.020599	-0.022888	0.039673	-0.006256	-0.49622	-0.011139	0.03006	0.15533	0.019989	-0.025787	0.056	-0.027313	0.063171	0.002594	-0.006409	-0.11307	-0.015106	0.11337	-0.28549	-0.016174	-0.37521	0.023499	-0.004578	0.003052	-0.002289	-0.00412	-0.040894	-0.029144	-0.009003
7.432	-0.019226	0.006256	-0.016937	0.0177	0	0.08194	-0.015411	-0.54611	-0.027161	0.007324	0.090485	0.01358	0.028381	-0.005493	0.065308	-0.059204	0.000153	-0.006409	-0.091095	0.019531	0.14618	-0.27634	-0.020752	-0.34347	0.021515	0.000763	0.002289	-0.018616	-0.001678	-0.043335	-0.042419	-0.01358
7.433	-0.014801	-0.00824	0.075073	0.012665	-0.057068	0.054474	-0.012054	-0.17288	-0.029755	-0.026093	0.063629	0.037079	0.053711	0.06546	0.054779	0.088959	-0.000305	-0.003052	-0.002594	0.045166	0.1651	-0.21027	-0.02121	-0.18021	0.030823	-0.001678	0.001984	-0.014038	-0.004272	-0.046234	-0.043182	-0.027161
7.434	-0.010986	-0.003662	0.10651	0.013885	-0.065155	0.019531	-0.003967	-0.12314	-0.055237	-0.030823	0.049438	0.085907	0.017242	0.093384	0.037537	0.090332	-0.006714	-0.007477	0.07309	-0.16159	0.15381	-0.12543	-0.018616	-0.034637	0.026245	0.006866	0.008392	-0.007629	-0.000763	-0.046234	-0.036926	-0.028992
7.435	-0.017395	0.005646	-0.031281	0.015717	0.007019	0.015106	0.000305	-0.13763	-0.072632	-0.019226	0.030518	0.074158	-0.008545	0.033417	0.010071	-0.088806	-0.006561	-0.001678	0.11063	0.03418	0.081787	-0.016022	-0.021667	0.121	0.030212	0.003662	0.004425	-0.012207	0.003357	-0.045929	-0.033264	-0.020752
7.436	-0.00473	0.014801	-0.11566	-0.003052	0.12817	0.008087	-0.000153	-0.050659	-0.074615	-0.030975	0.018768	0.082092	-0.012817	0.056152	-0.020752	0.037079	-0.007629	-0.004425	0.14221	-0.063934	-0.069122	0.15717	-0.02121	0.242	0.033417	0.009613	0.005341	-0.005188	0.003815	-0.050354	-0.016479	-0.02655
7.437	-0.002747	0.007629	-0.019684	-0.014038	0.19486	-0.006104	0.013885	0.10544	-0.045624	-0.045166	0.005646	0.085602	-0.013428	0.011902	-0.07431	-0.13412	-0.006409	-0.005188	0.083771	0.10178	-0.029755	0.26886	-0.023956	0.24078	0.028687	0.010986	0.005798	-0.001984	-0.003815	-0.04303	0.013885	-0.006409
7.438	0.000916	0.002594	-0.00885	-0.011292	0.23346	-0.019073	0.006714	0.22781	0.015411	-0.050507	0.01236	0.053711	0.017395	-0.040894	-0.064697	0.031128	0.003967	-0.006561	0.044556	-0.075989	0.020294	0.30624	-0.023193	0.24429	0.027466	0.013275	0.010376	-0.003052	-0.005341	-0.04364	0.056152	0.002136
7.439	0.001068	0.002441	-0.007477	-0.008392	0.25482	-0.03479	0.010681	0.25406	0.041199	-0.042877	0.020294	-0.041199	0.032959	-0.11475	-0.05188	0.15274	-0.00824	-0.001984	-0.032349	0.073853	0.038147	0.1886	-0.026703	0.21133	0.02182	0.010071	0.019684	-0.008698	-0.006561	-0.037994	0.073853	-0.007782
7.44	0.011597	0.005951	0.11948	-0.018463	0.18814	-0.044708	0.001678	0.28549	0.049744	-0.063782	0.023804	-0.10513	0.005188	-0.18799	0.065002	0.10696	-0.007782	-0.002289	-0.081024	-0.12985	0.045929	0.093536	-0.02121	0.17456	0.015106	0.006409	0.023346	-0.011597	-0.005341	-0.035248	0.061951	-0.019684
7.441	-0.008392	0.009918	0.11353	-0.005188	0.20966	-0.049744	0.002441	-0.059357	0.055542	-0.07431	0.015869	0.049286	0.011444	-0.038452	0.056152	-0.11749	-0.003357	-0.003815	-0.027771	-0.15839	0.06546	0.053253	-0.027771	0.14984	0.010834	0.003662	0.025482	-0.007477	-0.008698	-0.036163	0.071869	-0.021973
7.442	-0.007324	-0.00351	0.061188	0.007477	0.11215	-0.040283	-0.000458	-0.17883	0.034943	-0.045319	-0.001221	0.10056	0.002136	0.12909	0.032196	-0.05188	-0.010223	-0.002747	-0.002899	-0.00824	0.072479	0.041504	-0.025024	0.11673	0.003662	0.007172	0.037689	-0.005646	-0.005341	-0.032501	0.045929	-0.02121
7.443	-0.034637	-0.015411	0.009918	0.015869	-0.040436	-0.048523	-0.013123	-0.22964	0.024872	-0.007935	-0.016937	0.11337	-0.01709	0.28961	0.077209	-0.1355	-0.014191	-0.003357	-0.020599	-0.1062	0.054016	0.036469	-0.019684	0.071564	0.006866	-0.000153	0.043793	-0.001373	-0.006866	-0.027008	0.026398	-0.019073
